<svg width="101" height="101" viewBox="0 0 101 101" fill="none" xmlns="http://www.w3.org/2000/svg">
<path d="M40.5032 6.6369C44.571 -1.25852 55.8596 -1.25852 59.9273 6.6369C62.5953 11.8154 68.6141 14.3085 74.1624 12.5333C82.6217 9.82668 90.6039 17.809 87.8972 26.2682C86.122 31.8165 88.6152 37.8353 93.7938 40.5032C101.689 44.571 101.689 55.8596 93.7938 59.9273C88.6152 62.5953 86.122 68.6141 87.8972 74.1624C90.6039 82.6217 82.6217 90.6039 74.1624 87.8972C68.6141 86.122 62.5953 88.6152 59.9273 93.7938C55.8596 101.689 44.571 101.689 40.5032 93.7938C37.8353 88.6152 31.8165 86.122 26.2682 87.8972C17.809 90.6039 9.82668 82.6217 12.5333 74.1624C14.3085 68.6141 11.8154 62.5953 6.6369 59.9273C-1.25852 55.8596 -1.25852 44.571 6.6369 40.5032C11.8154 37.8353 14.3085 31.8165 12.5333 26.2682C9.82668 17.809 17.809 9.82668 26.2682 12.5333C31.8165 14.3085 37.8353 11.8154 40.5032 6.6369Z" fill="url(#paint0_radial_170_149)" stroke="url(#paint1_linear_170_149)"/>
<defs>
<radialGradient id="paint0_radial_170_149" cx="0" cy="0" r="1" gradientUnits="userSpaceOnUse" gradientTransform="translate(49.8342 51.2316) rotate(-0.757393) scale(93.174)">
<stop stop-color="#250D87" stop-opacity="0.34"/>
<stop offset="0.0001" stop-color="#8466FE"/>
<stop offset="1" stop-color="#250D87" stop-opacity="0.67"/>
</radialGradient>
<linearGradient id="paint1_linear_170_149" x1="50.2153" y1="0.215332" x2="50.2153" y2="100.215" gradientUnits="userSpaceOnUse">
<stop stop-color="#5F5E5E" stop-opacity="0.87"/>
<stop offset="1" stop-color="white" stop-opacity="0.24"/>
</linearGradient>
</defs>
</svg>
